<?xml version="1.0" encoding="UTF-8"?>
<svg version="1.1" xmlns="http://www.w3.org/2000/svg" width="265" height="265">
<path d="M0 0 C0.86465205 0.11603592 0.86465205 0.11603592 1.74677181 0.23441601 C13.53277364 1.80975326 25.32192464 3.28994363 37.14151669 4.5898695 C45.47253881 5.51163097 53.79005907 6.52866946 62.10534 7.58264637 C67.65390623 8.28238408 73.20193371 8.94378476 78.7644043 9.52368164 C117.93008101 13.64883469 117.93008101 13.64883469 125.89355469 22.07885742 C129.10270379 26.52715561 131.20055626 31.11400254 132.96603394 36.28829956 C134.69579397 40.82480343 137.42367235 44.68113141 140.125 48.6875 C141.11415366 50.24437 142.09913648 51.8039055 143.078125 53.3671875 C143.80225586 54.51525879 143.80225586 54.51525879 144.54101562 55.68652344 C145.51367188 57.22884115 146.48632812 58.77115885 147.45898438 60.31347656 C154.96922204 72.22056231 162.5058182 84.11056746 170.07470703 95.98046875 C171.42776409 98.10253439 172.78025258 100.22496261 174.13232422 102.34765625 C175.95946059 105.2160895 177.78840948 108.08336017 179.61853027 110.94989014 C180.66629087 112.59176462 181.71255558 114.2345934 182.75878906 115.87744141 C183.39913086 116.87952637 184.03947266 117.88161133 184.69921875 118.9140625 C185.26471436 119.8004541 185.83020996 120.6868457 186.4128418 121.60009766 C187.94823997 124.01597984 187.94823997 124.01597984 189.76879883 126.13037109 C190.17509521 126.74734863 190.5813916 127.36432617 191 128 C189.84864336 131.45406993 189.35259819 131.67662803 186.3359375 133.42578125 C185.55573242 133.88509033 184.77552734 134.34439941 183.97167969 134.81762695 C183.11477539 135.31093506 182.25787109 135.80424316 181.375 136.3125 C179.53335731 137.39498847 177.69223099 138.47835583 175.8515625 139.5625 C174.88766602 140.12710938 173.92376953 140.69171875 172.93066406 141.2734375 C168.17618637 144.07447601 163.46208693 146.9408883 158.75 149.8125 C157.79762451 150.39209473 156.84524902 150.97168945 155.86401367 151.56884766 C148.77458841 155.89321348 141.72481575 160.27894411 134.6875 164.6875 C119.63359038 174.11359723 119.63359038 174.11359723 112.625 178.4375 C111.87565186 178.90438232 111.12630371 179.37126465 110.35424805 179.85229492 C105.23082352 183 105.23082352 183 103 183 C102.83063934 182.21311798 102.66127869 181.42623596 102.48678589 180.61550903 C100.86117449 173.1045228 99.18898282 165.60603969 97.46694756 158.11662483 C96.58370999 154.26811468 95.71736972 150.41754219 94.89208984 146.55615234 C91.09913783 128.87224678 87.47631727 114.11271472 74.56091309 100.66699219 C72.39559903 98.35452416 70.57475389 95.84457206 68.74609375 93.26171875 C67.90014648 92.09672852 67.90014648 92.09672852 67.03710938 90.90820312 C65.93461022 89.37762738 64.83310673 87.84633411 63.73242188 86.31445312 C55.1974674 74.57266629 43.52029521 66.09076722 32.07421875 57.35546875 C26.32983956 52.95412104 20.71232802 48.3986954 15.10546875 43.82421875 C14.40848877 43.25614502 13.71150879 42.68807129 12.9934082 42.1027832 C11.62217282 40.9843975 10.2521374 39.86453825 8.88354492 38.74291992 C8.23877197 38.21674072 7.59399902 37.69056152 6.9296875 37.1484375 C5.97400879 36.36484863 5.97400879 36.36484863 4.99902344 35.56542969 C3.61034929 34.47796283 2.18238966 33.4395838 0.72753906 32.44238281 C-0.37122559 31.68586426 -0.37122559 31.68586426 -1.4921875 30.9140625 C-2.16362793 30.47271973 -2.83506836 30.03137695 -3.52685547 29.57666016 C-5 28 -5 28 -5 23 C1.27 22.34 7.54 21.68 14 21 C13.67 20.01 13.34 19.02 13 18 C12.34 18 11.68 18 11 18 C9.62101957 16.30189246 8.32040522 14.53964541 7.0625 12.75 C6.37285156 11.77546875 5.68320313 10.8009375 4.97265625 9.796875 C3.99619141 8.41242187 3.99619141 8.41242187 3 7 C2.13181641 5.92492187 2.13181641 5.92492187 1.24609375 4.828125 C0 3 0 3 0 0 Z " fill="#ABADB2" transform="translate(5,21)"/>
<path d="M0 0 C2.637124 3.2057963 4.99892168 6.4340639 7.1796875 9.96484375 C8.06756958 11.39534058 8.06756958 11.39534058 8.97338867 12.85473633 C9.60092041 13.87204834 10.22845215 14.88936035 10.875 15.9375 C12.22189188 18.10724551 13.56956551 20.27650591 14.91796875 22.4453125 C15.93963135 24.08935059 15.93963135 24.08935059 16.98193359 25.76660156 C20.02019725 30.63458655 23.10046789 35.47534285 26.1875 40.3125 C30.47366381 47.03211031 34.74861548 53.75832687 39 60.5 C40.9993091 63.66710331 42.99952945 66.83363021 45 70 C45.556875 70.88187988 46.11375 71.76375977 46.6875 72.67236328 C48.45594679 75.4705948 50.22734785 78.26693084 52 81.0625 C52.86927124 82.43595581 52.86927124 82.43595581 53.75610352 83.8371582 C56.63655901 88.36726694 59.56031572 92.85702122 62.58984375 97.2890625 C63.15380859 98.11656006 63.71777344 98.94405762 64.29882812 99.79663086 C65.36759086 101.35598626 66.44533359 102.90923595 67.53320312 104.45532227 C68.00564453 105.14424561 68.47808594 105.83316895 68.96484375 106.54296875 C69.59314087 107.4405188 69.59314087 107.4405188 70.23413086 108.35620117 C71 110 71 110 70 113 C67.5625 114.75 67.5625 114.75 65 116 C64.34 115.67 63.68 115.34 63 115 C64.98 113.515 64.98 113.515 67 112 C59.94048794 109.51842965 52.84387104 107.64947599 45.5625 105.9375 C44.49451172 105.68162109 43.42652344 105.42574219 42.32617188 105.16210938 C37.6434891 104.04936435 32.96486504 102.97218376 28.23828125 102.0625 C20.97838532 100.64435221 13.80852692 98.81977791 6.625 97.0625 C5.18233501 96.7114104 3.73962689 96.36049796 2.296875 96.00976562 C-1.16067618 95.16841076 -4.61700234 94.32217235 -8.07263184 93.47296143 C-9.92846131 93.01755505 -11.78501777 92.56511434 -13.64160156 92.11279297 C-14.72151367 91.84740723 -15.80142578 91.58202148 -16.9140625 91.30859375 C-18.32486084 90.96332642 -18.32486084 90.96332642 -19.76416016 90.61108398 C-22 90 -22 90 -24 89 C-23.41671741 83.44640509 -22.42340682 78.29614183 -20.875 72.9375 C-20.65763184 72.16857422 -20.44026367 71.39964844 -20.21630859 70.60742188 C-18.16222076 63.41024165 -15.94049858 56.26500006 -13.73461914 49.11328125 C-10.77858736 39.44161223 -8.17359773 29.68353565 -5.578125 19.91015625 C-3.80804259 13.24687841 -1.93686465 6.61661838 0 0 Z " fill="#D2D3D5" transform="translate(125,39)"/>
<path d="M0 0 C7.77267868 0.68533296 15.25735701 2.2119363 22.875 3.875 C24.67904297 4.25978516 24.67904297 4.25978516 26.51953125 4.65234375 C32.89078445 6.02897718 39.17398488 7.56586558 45.44946289 9.32470703 C48.64253011 10.17011949 51.85528199 10.78941452 55.09814453 11.41015625 C60.99502364 12.60878152 66.83976714 14.04758832 72.6887207 15.45898438 C74.95586738 16.00441886 77.22494931 16.54126933 79.49414062 17.078125 C80.94283481 17.4265579 82.39140719 17.77549769 83.83984375 18.125 C84.85231422 18.36259033 84.85231422 18.36259033 85.88523865 18.60498047 C89.08723654 19.38771217 91.21923832 20.14615888 94 22 C92.9171875 22.5878125 92.9171875 22.5878125 91.8125 23.1875 C88.91878801 24.90036823 88.91878801 24.90036823 86.6796875 27.40625 C83.98607246 30.01348088 81.60370145 31.54679781 78.3125 33.3125 C71.28662594 37.18707712 64.45175948 41.34846955 57.625 45.5625 C56.51423096 46.24787842 55.40346191 46.93325684 54.2590332 47.6394043 C45.51517694 53.04203245 36.79600403 58.48436976 28.09228516 63.95141602 C25.39899423 65.6410504 22.7014961 67.32351846 20 69 C19.06414062 69.58104492 18.12828125 70.16208984 17.1640625 70.76074219 C16.26429687 71.31149414 15.36453125 71.86224609 14.4375 72.4296875 C13.22900391 73.1719458 13.22900391 73.1719458 11.99609375 73.92919922 C10 75 10 75 8 75 C6.32705652 68.91048573 4.91942757 62.91500772 4.15625 56.640625 C2.99530142 48.22903496 0.96350257 40.09698903 -1.125 31.875 C-1.68549903 29.6571425 -2.24384903 27.43882642 -2.79660034 25.21902466 C-3.291751 23.23181463 -3.79433119 21.24646008 -4.29736328 19.26123047 C-5 16 -5 16 -5 12 C-4.34 12 -3.68 12 -3 12 C-2.87625 10.7625 -2.7525 9.525 -2.625 8.25 C-2.30532131 5.05321308 -1.48170682 2.83863833 0 0 Z " fill="#77767B" transform="translate(100,129)"/>
<path d="M0 0 C1.453125 2.13671875 1.453125 2.13671875 3 5 C4.88386742 6.9967893 6.77345296 8.91409552 8.75 10.8125 C13.39802053 15.36627559 17.80783578 20.01847152 22 25 C23.14516844 26.33390444 24.29097349 27.66726268 25.4375 29 C26.283125 29.99 27.12875 30.98 28 32 C19.98505154 32.27908417 12.35250975 31.19838511 4.4375 30 C3.14263672 29.80921875 1.84777344 29.6184375 0.51367188 29.421875 C-2.65845229 28.95366479 -5.82957613 28.47956527 -9 28 C-9.14550293 28.59611084 -9.29100586 29.19222168 -9.44091797 29.80639648 C-11.55148089 38.00559054 -14.37438866 45.88427381 -17.29833984 53.8190918 C-18.13441359 56.08804681 -18.9642166 58.35922099 -19.79296875 60.63085938 C-20.32256323 62.07825437 -20.85249834 63.52552479 -21.3828125 64.97265625 C-21.6307254 65.6496608 -21.87863831 66.32666534 -22.13406372 67.02418518 C-23.88182188 71.76364376 -23.88182188 71.76364376 -25 74 C-27.43936138 75.10317132 -29.85827986 76.09897217 -32.35546875 77.0546875 C-33.11670044 77.35248611 -33.87793213 77.65028473 -34.66223145 77.95710754 C-37.16824774 78.93604192 -39.67784316 79.90544139 -42.1875 80.875 C-44.78966163 81.88880805 -47.39089872 82.90496493 -49.99214172 83.92112732 C-51.75441924 84.6092701 -53.51702599 85.29657032 -55.279953 85.98304749 C-64.64576774 89.63190063 -73.97081238 93.38037917 -83.29174805 97.14208984 C-90.14863805 99.89820884 -97.03575263 102.52711761 -104 105 C-104 104.01 -104 103.02 -104 102 C-103.05382812 101.50185791 -102.10765625 101.00371582 -101.1328125 100.49047852 C-97.53820256 98.59721408 -93.94516617 96.700979 -90.35253906 94.80395508 C-88.8132367 93.99165199 -87.27353856 93.18009833 -85.73339844 92.36938477 C-76.87930832 87.70796673 -68.08950372 82.96007251 -59.38523865 78.02412415 C-54.84170942 75.45392513 -50.26305373 73.01791183 -45.5625 70.75 C-40.47768981 68.25805676 -35.48844038 65.68047466 -30.6015625 62.8125 C-29 62 -29 62 -27 62 C-33.43658941 49.43899231 -39.98697753 36.98585036 -47.16503906 24.8293457 C-47.87611816 23.61251099 -47.87611816 23.61251099 -48.6015625 22.37109375 C-49.01744629 21.66911865 -49.43333008 20.96714355 -49.86181641 20.24389648 C-51.21609987 17.57396528 -52.11012634 14.8543937 -53 12 C-43.04374995 9.30362902 -33.0653789 6.72308317 -23.04394531 4.28027344 C-21.57943344 3.92222303 -20.11557785 3.56147912 -18.65234375 3.19824219 C-16.49612993 2.66299158 -14.33818849 2.13531601 -12.1796875 1.609375 C-10.91882324 1.29967773 -9.65795898 0.98998047 -8.35888672 0.67089844 C-5.42264136 0.08441768 -2.97196504 -0.32483639 0 0 Z " fill="#D6D6D8" transform="translate(231,93)"/>
<path d="M0 0 C0.66 0 1.32 0 2 0 C3.79728185 6.90082998 5.59364752 13.801898 7.3894043 20.703125 C7.99922397 23.04627768 8.60924621 25.38937764 9.21948242 27.73242188 C10.10129407 31.11834789 10.98235449 34.50446867 11.86328125 37.890625 C12.13215652 38.92237854 12.4010318 39.95413208 12.67805481 41.01715088 C13.19653717 43.0112443 13.71171067 45.00620149 14.22329712 47.0020752 C14.7666444 49.09929194 15.32607767 51.19237703 15.89755249 53.28210449 C16.18167999 54.34626587 16.4658075 55.41042725 16.75854492 56.50683594 C17.02028 57.4649115 17.28201508 58.42298706 17.55168152 59.41009521 C18.00931768 62.05382758 17.94859392 63.51464755 17 66 C15.55151367 67.5012207 15.55151367 67.5012207 13.66796875 68.92578125 C12.9618042 69.46750977 12.25563965 70.00923828 11.52807617 70.56738281 C10.75568604 71.14327148 9.9832959 71.71916016 9.1875 72.3125 C8.38868408 72.92061523 7.58986816 73.52873047 6.7668457 74.15527344 C4.18622898 76.11482992 1.59429426 78.05859673 -1 80 C-2.72932822 81.30056647 -4.45849585 82.60134648 -6.1875 83.90234375 C-9.5613006 86.43789525 -12.94125466 88.9649747 -16.32421875 91.48828125 C-19.26562909 93.6875954 -22.18667631 95.90837204 -25.08203125 98.16796875 C-25.68813232 98.64073242 -26.2942334 99.11349609 -26.91870117 99.60058594 C-28.50392291 100.84263405 -30.08420252 102.09098271 -31.6640625 103.33984375 C-34 105 -34 105 -36 105 C-34.68222349 98.50130905 -32.88341971 92.42707217 -30.61328125 86.203125 C-29.92193925 84.27564091 -29.23061516 82.34815039 -28.53930664 80.4206543 C-28.17612335 79.41449066 -27.81294006 78.40832703 -27.43875122 77.37167358 C-20.19440081 57.29223048 -13.27915753 37.12084302 -6.64770508 16.83105469 C-6.3482196 15.9200148 -6.04873413 15.00897491 -5.74017334 14.07032776 C-5.18251715 12.37320303 -4.62867646 10.67481783 -4.07940674 8.97496033 C-2.98609998 5.65145195 -1.95236824 2.92855236 0 0 Z " fill="#D6D7D9" transform="translate(93,157)"/>
<path d="M0 0 C3.39537852 -0.14575327 6.78994902 -0.23421542 10.1875 -0.3125 C11.14720703 -0.35439453 12.10691406 -0.39628906 13.09570312 -0.43945312 C20.26288033 -0.56345273 20.26288033 -0.56345273 23.984375 2.28125 C24.64953125 3.1784375 25.3146875 4.075625 26 5 C26.52722656 5.62519531 27.05445312 6.25039063 27.59765625 6.89453125 C28.08105469 7.52746094 28.56445312 8.16039062 29.0625 8.8125 C29.65289063 9.58335938 30.24328125 10.35421875 30.8515625 11.1484375 C32.517077 13.35902948 34.17825288 15.57260778 35.8359375 17.7890625 C36.34213623 18.46582031 36.84833496 19.14257812 37.36987305 19.83984375 C38.41425819 21.23734526 39.45739222 22.63578263 40.49926758 24.03515625 C44.08848014 28.83969446 47.79557709 33.50453311 51.671875 38.08203125 C53 40 53 40 53 43 C46.21792172 41.69575418 41.18470122 37.78230069 36 33.5 C34.66715023 32.41607178 33.33380578 31.3327516 32 30.25 C31.33097656 29.70472656 30.66195313 29.15945312 29.97265625 28.59765625 C27.00871236 26.19715516 24.00580072 23.84771839 21 21.5 C13.62171687 15.72278521 6.30843797 9.86517501 -1 4 C-0.67 2.68 -0.34 1.36 0 0 Z " fill="#7F7E82" transform="translate(1,45)"/>
<path d="M0 0 C4.09890181 1.61028285 6.76209785 4.57810754 9.75 7.6875 C13.81927101 11.84620554 17.952473 15.81868 22.375 19.60546875 C24.36392998 21.31231491 26.25762234 23.03982513 28 25 C28 25.66 28 26.32 28 27 C16.60052576 25.6798974 5.30605732 23.96285717 -6 22 C-5.40421223 16.73378394 -4.18691204 12.05591981 -2.4375 7.0625 C-2.20353516 6.37865234 -1.96957031 5.69480469 -1.72851562 4.99023438 C-1.15788171 3.32491499 -0.57972902 1.66217507 0 0 Z " fill="#76767A" transform="translate(229,97)"/>
<path d="M0 0 C0.66 0.33 1.32 0.66 2 1 C-4.75 5 -4.75 5 -7 5 C-7 6.32 -7 7.64 -7 9 C-6.31292969 8.77183594 -5.62585938 8.54367188 -4.91796875 8.30859375 C-4.01691406 8.02113281 -3.11585938 7.73367187 -2.1875 7.4375 C-1.29417969 7.14746094 -0.40085938 6.85742188 0.51953125 6.55859375 C3 6 3 6 6 7 C0.50571491 9.20768621 -4.98951691 11.41299398 -10.4855957 13.61621094 C-12.35075938 14.36427382 -14.21567382 15.11295845 -16.08032227 15.86230469 C-35.96010558 23.85043085 -35.96010558 23.85043085 -45 27 C-45 26.01 -45 25.02 -45 24 C-44.02764404 23.48614746 -43.05528809 22.97229492 -42.0534668 22.44287109 C-38.3945528 20.50902912 -34.73614632 18.57422867 -31.07788086 16.63916016 C-29.50412273 15.8068734 -27.9302329 14.97483561 -26.35620117 14.14306641 C-24.8269696 13.33493195 -23.29792536 12.52644289 -21.76907349 11.71759033 C-20.27023937 10.924699 -18.77095464 10.13265888 -17.27120972 9.3414917 C-13.99661391 7.60962914 -10.73413265 5.86484951 -7.51025391 4.04003906 C-6.52331543 3.4828418 -5.53637695 2.92564453 -4.51953125 2.3515625 C-3.68139893 1.86768066 -2.8432666 1.38379883 -1.97973633 0.88525391 C-0.99976685 0.44705322 -0.99976685 0.44705322 0 0 Z " fill="#EFEFEF" transform="translate(172,171)"/>
<path d="M0 0 C0.66 0.33 1.32 0.66 2 1 C-4.75 5 -4.75 5 -7 5 C-7 6.32 -7 7.64 -7 9 C-6.31292969 8.77183594 -5.62585938 8.54367188 -4.91796875 8.30859375 C-4.01691406 8.02113281 -3.11585938 7.73367187 -2.1875 7.4375 C-1.29417969 7.14746094 -0.40085938 6.85742188 0.51953125 6.55859375 C3 6 3 6 6 7 C2.83986097 8.32861274 -0.32908393 9.63484136 -3.5 10.9375 C-4.386875 11.31068359 -5.27375 11.68386719 -6.1875 12.06835938 C-11.53707668 14.25145868 -16.23157221 15.5754545 -22 16 C-22 15.01 -22 14.02 -22 13 C-21.32453125 12.68546875 -20.6490625 12.3709375 -19.953125 12.046875 C-15.21633179 9.77430947 -11.66593962 7.78813761 -8 4 C-5.43144178 2.44643656 -2.83467712 1.00011336 0 0 Z " fill="#E6E6E6" transform="translate(172,171)"/>
<path d="M0 0 C4.48614347 4.21425599 8.63977412 8.82893193 12 14 C12 14.99 12 15.98 12 17 C5.51141652 15.75219548 0.83524544 12.25962098 -4 8 C-3.525625 7.608125 -3.05125 7.21625 -2.5625 6.8125 C-0.64820367 4.59191626 -0.38733012 2.86624291 0 0 Z " fill="#8A8A8D" transform="translate(42,71)"/>
<path d="M0 0 C-3 2 -3 2 -7 2 C-7 2.66 -7 3.32 -7 4 C-7.76441406 4.10957031 -8.52882812 4.21914062 -9.31640625 4.33203125 C-17.94562259 5.60927988 -26.46121546 7.22846794 -35 9 C-34.60095459 9.71655762 -34.20190918 10.43311523 -33.79077148 11.17138672 C-31.99804063 14.40139543 -30.21764477 17.63803912 -28.4375 20.875 C-27.80908203 22.00292969 -27.18066406 23.13085938 -26.53320312 24.29296875 C-25.64858398 25.90751953 -25.64858398 25.90751953 -24.74609375 27.5546875 C-23.92129517 29.04718018 -23.92129517 29.04718018 -23.07983398 30.56982422 C-22.72348877 31.37178223 -22.36714355 32.17374023 -22 33 C-22.33 33.66 -22.66 34.32 -23 35 C-24.96731204 31.6301588 -26.92221346 28.25327603 -28.875 24.875 C-29.43058594 23.92367187 -29.98617187 22.97234375 -30.55859375 21.9921875 C-33.19242273 17.42265288 -35.63326845 13.13821863 -37 8 C-28.98500342 5.8066676 -20.95384878 3.69577453 -12.875 1.75 C-12.16545166 1.57500977 -11.45590332 1.40001953 -10.72485352 1.21972656 C-7.08170448 0.35514732 -3.74712932 -0.20412378 0 0 Z " fill="#F7F7F8" transform="translate(215,97)"/>
<path d="M0 0 C9.72003611 0.55972906 19.24522007 1.62058057 28.875 3.0625 C30.14730469 3.24876953 31.41960938 3.43503906 32.73046875 3.62695312 C35.82101479 4.0800783 38.91079922 4.53780828 42 5 C42 5.33 42 5.66 42 6 C32.97007914 5.55436754 24.15236022 4.81024109 15.2109375 3.3984375 C11.38872737 2.92414865 7.7271155 2.96223223 3.890625 3.22265625 C3.26671875 3.14917969 2.6428125 3.07570313 2 3 C1.34 2.01 0.68 1.02 0 0 Z " fill="#EBECED" transform="translate(21,24)"/>
<path d="M0 0 C0.556875 0.309375 1.11375 0.61875 1.6875 0.9375 C3.98169364 2.12452667 3.98169364 2.12452667 6.625 2.375 C9 3 9 3 10.3125 5.0625 C10.6528125 6.0215625 10.6528125 6.0215625 11 7 C11.66 7 12.32 7 13 7 C13.66 8.65 14.32 10.3 15 12 C11.26427172 10.37228982 8.38341608 8.01966695 5.25 5.4375 C4.26515625 4.63183594 3.2803125 3.82617188 2.265625 2.99609375 C1.51796875 2.33738281 0.7703125 1.67867188 0 1 C0 0.67 0 0.34 0 0 Z " fill="#BDBDBF" transform="translate(47,85)"/>
<path d="M0 0 C5.28 0.66 10.56 1.32 16 2 C16 2.33 16 2.66 16 3 C11.71 3 7.42 3 3 3 C4.98 5.64 6.96 8.28 9 11 C8.67 11.66 8.34 12.32 8 13 C6.6578508 11.40320196 5.32652885 9.79729803 4 8.1875 C2.88625 6.84751953 2.88625 6.84751953 1.75 5.48046875 C0 3 0 3 0 0 Z " fill="#F2F2F3" transform="translate(5,21)"/>
<path d="M0 0 C1.04296875 1.890625 1.04296875 1.890625 2 4 C1.3125 5.75 1.3125 5.75 0 8 C-0.54199346 9.32487291 -1.06097335 10.6592852 -1.5625 12 C-1.81128906 12.66 -2.06007812 13.32 -2.31640625 14 C-2.99404276 15.98257081 -3.52210294 17.96097254 -4 20 C-4.66 20 -5.32 20 -6 20 C-4.63125844 13.04223041 -2.5466871 6.61396893 0 0 Z " fill="#F2F2F2" transform="translate(63,242)"/>
<path d="M0 0 C2.64 0 5.28 0 8 0 C6.68 0.33 5.36 0.66 4 1 C3.67 2.65 3.34 4.3 3 6 C1.68 5.34 0.36 4.68 -1 4 C-0.67 2.68 -0.34 1.36 0 0 Z " fill="#969698" transform="translate(1,45)"/>
<path d="M0 0 C-4.29 1.65 -8.58 3.3 -13 5 C-13 4.01 -13 3.02 -13 2 C-3.60674157 -1.20224719 -3.60674157 -1.20224719 0 0 Z " fill="#FBFBFB" transform="translate(140,193)"/>
<path d="M0 0 C-3 2 -3 2 -7 2 C-7 2.66 -7 3.32 -7 4 C-8.98 4.33 -10.96 4.66 -13 5 C-13 4.01 -13 3.02 -13 2 C-4.57142857 -0.28571429 -4.57142857 -0.28571429 0 0 Z " fill="#EFEFF0" transform="translate(215,97)"/>
<path d="M0 0 C1.485 0.99 1.485 0.99 3 2 C3.66 1.34 4.32 0.68 5 0 C5.66 1.32 6.32 2.64 7 4 C5.35 4.66 3.7 5.32 2 6 C2 5.34 2 4.68 2 4 C1.34 4 0.68 4 0 4 C0 2.68 0 1.36 0 0 Z " fill="#8E8D90" transform="translate(107,196)"/>
<path d="M0 0 C1.7074998 1.28062485 3.37373596 2.61767557 5 4 C5 4.66 5 5.32 5 6 C2.5625 5.625 2.5625 5.625 0 5 C-0.33 4.34 -0.66 3.68 -1 3 C-0.67 2.01 -0.34 1.02 0 0 Z " fill="#9F9FA0" transform="translate(252,118)"/>
<path d="M0 0 C2.0625 0.4375 2.0625 0.4375 4 1 C4.33 2.32 4.66 3.64 5 5 C3.125 4.6875 3.125 4.6875 1 4 C0.34 3.01 -0.32 2.02 -1 1 C-0.67 0.67 -0.34 0.34 0 0 Z " fill="#747579" transform="translate(49,83)"/>
<path d="M0 0 C-0.5625 1.9375 -0.5625 1.9375 -2 4 C-5.625 4.75 -5.625 4.75 -9 5 C-6.45523312 2.20075644 -3.92372883 0 0 0 Z " fill="#ECECEC" transform="translate(189,163)"/>
</svg>
